<mxfile host="app.diagrams.net" agent="Mozilla/5.0 (Windows NT 10.0; Win64; x64) AppleWebKit/537.36 (KHTML, like Gecko) Chrome/136.0.0.0 Safari/537.36 Edg/136.0.0.0" version="26.2.14">
  <diagram name="Страница — 1" id="D6S72HVGoku-IGQNAt0P">
    <mxGraphModel dx="1037" dy="589" grid="1" gridSize="10" guides="1" tooltips="1" connect="1" arrows="1" fold="1" page="1" pageScale="1" pageWidth="827" pageHeight="1169" math="0" shadow="0">
      <root>
        <mxCell id="0" />
        <mxCell id="1" parent="0" />
        <mxCell id="PhKis-h3U5D9uUf4bhLr-1" value="Сбор данных" style="rounded=0;whiteSpace=wrap;html=1;" parent="1" vertex="1">
          <mxGeometry x="240" y="200" width="120" height="60" as="geometry" />
        </mxCell>
        <mxCell id="kqxBuQOH_niwhio6lM97-1" value="" style="endArrow=classic;html=1;rounded=0;entryX=0;entryY=0.5;entryDx=0;entryDy=0;" edge="1" parent="1">
          <mxGeometry width="50" height="50" relative="1" as="geometry">
            <mxPoint x="150" y="210" as="sourcePoint" />
            <mxPoint x="240" y="210" as="targetPoint" />
          </mxGeometry>
        </mxCell>
        <mxCell id="kqxBuQOH_niwhio6lM97-3" value="" style="endArrow=classic;html=1;rounded=0;" edge="1" parent="1">
          <mxGeometry width="50" height="50" relative="1" as="geometry">
            <mxPoint x="270" y="480" as="sourcePoint" />
            <mxPoint x="270" y="260" as="targetPoint" />
          </mxGeometry>
        </mxCell>
        <mxCell id="kqxBuQOH_niwhio6lM97-4" value="Администратор" style="text;html=1;align=center;verticalAlign=middle;whiteSpace=wrap;rounded=0;" vertex="1" parent="1">
          <mxGeometry x="190" y="340" width="60" height="30" as="geometry" />
        </mxCell>
        <mxCell id="kqxBuQOH_niwhio6lM97-5" value="Обработка данных" style="rounded=0;whiteSpace=wrap;html=1;" vertex="1" parent="1">
          <mxGeometry x="440" y="280" width="120" height="60" as="geometry" />
        </mxCell>
        <mxCell id="kqxBuQOH_niwhio6lM97-6" value="Сохранение данных" style="rounded=0;whiteSpace=wrap;html=1;" vertex="1" parent="1">
          <mxGeometry x="640" y="360" width="120" height="60" as="geometry" />
        </mxCell>
        <mxCell id="kqxBuQOH_niwhio6lM97-7" value="" style="endArrow=classic;html=1;rounded=0;entryX=0;entryY=0.5;entryDx=0;entryDy=0;" edge="1" parent="1" target="kqxBuQOH_niwhio6lM97-5">
          <mxGeometry width="50" height="50" relative="1" as="geometry">
            <mxPoint x="360" y="230" as="sourcePoint" />
            <mxPoint x="450" y="230" as="targetPoint" />
            <Array as="points">
              <mxPoint x="400" y="230" />
              <mxPoint x="400" y="310" />
            </Array>
          </mxGeometry>
        </mxCell>
        <mxCell id="kqxBuQOH_niwhio6lM97-8" value="" style="endArrow=classic;html=1;rounded=0;entryX=0;entryY=0.5;entryDx=0;entryDy=0;" edge="1" parent="1">
          <mxGeometry width="50" height="50" relative="1" as="geometry">
            <mxPoint x="560" y="310" as="sourcePoint" />
            <mxPoint x="640" y="390" as="targetPoint" />
            <Array as="points">
              <mxPoint x="600" y="310" />
              <mxPoint x="600" y="390" />
            </Array>
          </mxGeometry>
        </mxCell>
        <mxCell id="kqxBuQOH_niwhio6lM97-9" value="" style="endArrow=classic;html=1;rounded=0;" edge="1" parent="1">
          <mxGeometry width="50" height="50" relative="1" as="geometry">
            <mxPoint x="760" y="369.99999999999994" as="sourcePoint" />
            <mxPoint x="820" y="369.99999999999994" as="targetPoint" />
          </mxGeometry>
        </mxCell>
        <mxCell id="kqxBuQOH_niwhio6lM97-10" value="" style="endArrow=classic;html=1;rounded=0;" edge="1" parent="1">
          <mxGeometry width="50" height="50" relative="1" as="geometry">
            <mxPoint x="760" y="389.88" as="sourcePoint" />
            <mxPoint x="820" y="389.88" as="targetPoint" />
          </mxGeometry>
        </mxCell>
        <mxCell id="kqxBuQOH_niwhio6lM97-11" value="&lt;h6&gt;&lt;font style=&quot;font-size: 6px; font-weight: normal;&quot;&gt;Запись в БД&lt;/font&gt;&lt;/h6&gt;" style="text;html=1;align=center;verticalAlign=middle;whiteSpace=wrap;rounded=0;" vertex="1" parent="1">
          <mxGeometry x="760" y="359.99999999999994" width="60" height="10" as="geometry" />
        </mxCell>
        <mxCell id="kqxBuQOH_niwhio6lM97-12" value="&lt;h6&gt;&lt;span style=&quot;font-size: 6px; font-weight: 400;&quot;&gt;ID оборудования&lt;/span&gt;&lt;/h6&gt;" style="text;html=1;align=center;verticalAlign=middle;whiteSpace=wrap;rounded=0;" vertex="1" parent="1">
          <mxGeometry x="760" y="379.99999999999994" width="60" height="10" as="geometry" />
        </mxCell>
        <mxCell id="kqxBuQOH_niwhio6lM97-13" value="" style="endArrow=classic;html=1;rounded=0;" edge="1" parent="1">
          <mxGeometry width="50" height="50" relative="1" as="geometry">
            <mxPoint x="760" y="409.99999999999994" as="sourcePoint" />
            <mxPoint x="820" y="409.99999999999994" as="targetPoint" />
          </mxGeometry>
        </mxCell>
        <mxCell id="kqxBuQOH_niwhio6lM97-14" value="&lt;h6&gt;&lt;span style=&quot;font-size: 6px; font-weight: 400;&quot;&gt;Статус операции&lt;/span&gt;&lt;/h6&gt;" style="text;html=1;align=center;verticalAlign=middle;whiteSpace=wrap;rounded=0;" vertex="1" parent="1">
          <mxGeometry x="760" y="400" width="60" height="10" as="geometry" />
        </mxCell>
        <mxCell id="kqxBuQOH_niwhio6lM97-15" value="&lt;h6&gt;&lt;font style=&quot;font-size: 6px; font-weight: normal;&quot;&gt;JSON с атрибутами оборудования&lt;/font&gt;&lt;/h6&gt;" style="text;html=1;align=center;verticalAlign=middle;whiteSpace=wrap;rounded=0;" vertex="1" parent="1">
          <mxGeometry x="170" y="230" width="60" height="15" as="geometry" />
        </mxCell>
        <mxCell id="kqxBuQOH_niwhio6lM97-16" value="&lt;font style=&quot;font-size: 6px;&quot;&gt;Изображение&lt;/font&gt;" style="text;html=1;align=center;verticalAlign=middle;whiteSpace=wrap;rounded=0;" vertex="1" parent="1">
          <mxGeometry x="170" y="190" width="60" height="10" as="geometry" />
        </mxCell>
        <mxCell id="kqxBuQOH_niwhio6lM97-17" value="" style="endArrow=classic;html=1;rounded=0;entryX=0;entryY=0.5;entryDx=0;entryDy=0;" edge="1" parent="1">
          <mxGeometry width="50" height="50" relative="1" as="geometry">
            <mxPoint x="150" y="250" as="sourcePoint" />
            <mxPoint x="240" y="250" as="targetPoint" />
          </mxGeometry>
        </mxCell>
        <mxCell id="kqxBuQOH_niwhio6lM97-19" value="1" style="text;html=1;align=center;verticalAlign=middle;whiteSpace=wrap;rounded=0;" vertex="1" parent="1">
          <mxGeometry x="340" y="240" width="20" height="20" as="geometry" />
        </mxCell>
        <mxCell id="kqxBuQOH_niwhio6lM97-20" value="2" style="text;html=1;align=center;verticalAlign=middle;whiteSpace=wrap;rounded=0;" vertex="1" parent="1">
          <mxGeometry x="540" y="320" width="20" height="20" as="geometry" />
        </mxCell>
        <mxCell id="kqxBuQOH_niwhio6lM97-21" value="3" style="text;html=1;align=center;verticalAlign=middle;whiteSpace=wrap;rounded=0;" vertex="1" parent="1">
          <mxGeometry x="740" y="400" width="20" height="20" as="geometry" />
        </mxCell>
        <mxCell id="kqxBuQOH_niwhio6lM97-22" value="" style="endArrow=classic;html=1;rounded=0;" edge="1" parent="1">
          <mxGeometry width="50" height="50" relative="1" as="geometry">
            <mxPoint x="270" y="50" as="sourcePoint" />
            <mxPoint x="270" y="200" as="targetPoint" />
          </mxGeometry>
        </mxCell>
        <mxCell id="kqxBuQOH_niwhio6lM97-23" value="Права доступа" style="text;html=1;align=center;verticalAlign=middle;whiteSpace=wrap;rounded=0;" vertex="1" parent="1">
          <mxGeometry x="200" y="70" width="60" height="30" as="geometry" />
        </mxCell>
        <mxCell id="kqxBuQOH_niwhio6lM97-24" value="" style="endArrow=classic;html=1;rounded=0;entryX=0.25;entryY=0;entryDx=0;entryDy=0;" edge="1" parent="1" target="kqxBuQOH_niwhio6lM97-6">
          <mxGeometry width="50" height="50" relative="1" as="geometry">
            <mxPoint x="270" y="90" as="sourcePoint" />
            <mxPoint x="390" y="90" as="targetPoint" />
            <Array as="points">
              <mxPoint x="670" y="90" />
            </Array>
          </mxGeometry>
        </mxCell>
        <mxCell id="kqxBuQOH_niwhio6lM97-25" value="" style="endArrow=classic;html=1;rounded=0;" edge="1" parent="1">
          <mxGeometry width="50" height="50" relative="1" as="geometry">
            <mxPoint x="330" y="50" as="sourcePoint" />
            <mxPoint x="330" y="200" as="targetPoint" />
          </mxGeometry>
        </mxCell>
        <mxCell id="kqxBuQOH_niwhio6lM97-26" value="Правила к оформлению" style="text;html=1;align=center;verticalAlign=middle;whiteSpace=wrap;rounded=0;" vertex="1" parent="1">
          <mxGeometry x="340" y="40" width="60" height="30" as="geometry" />
        </mxCell>
        <mxCell id="kqxBuQOH_niwhio6lM97-27" value="" style="endArrow=classic;html=1;rounded=0;entryX=0.5;entryY=0;entryDx=0;entryDy=0;" edge="1" parent="1" target="kqxBuQOH_niwhio6lM97-5">
          <mxGeometry width="50" height="50" relative="1" as="geometry">
            <mxPoint x="330" y="110" as="sourcePoint" />
            <mxPoint x="680" y="370" as="targetPoint" />
            <Array as="points">
              <mxPoint x="500" y="110" />
            </Array>
          </mxGeometry>
        </mxCell>
        <mxCell id="kqxBuQOH_niwhio6lM97-28" value="" style="endArrow=classic;html=1;rounded=0;" edge="1" parent="1">
          <mxGeometry width="50" height="50" relative="1" as="geometry">
            <mxPoint x="500" y="480" as="sourcePoint" />
            <mxPoint x="499.65999999999997" y="340" as="targetPoint" />
          </mxGeometry>
        </mxCell>
        <mxCell id="kqxBuQOH_niwhio6lM97-29" value="Форма с данными" style="text;html=1;align=center;verticalAlign=middle;whiteSpace=wrap;rounded=0;" vertex="1" parent="1">
          <mxGeometry x="420" y="410" width="60" height="30" as="geometry" />
        </mxCell>
        <mxCell id="kqxBuQOH_niwhio6lM97-30" value="&lt;font style=&quot;font-size: 8px;&quot;&gt;Набор данных&lt;/font&gt;" style="text;html=1;align=center;verticalAlign=middle;whiteSpace=wrap;rounded=0;" vertex="1" parent="1">
          <mxGeometry x="380" y="210" width="60" height="10" as="geometry" />
        </mxCell>
        <mxCell id="kqxBuQOH_niwhio6lM97-32" value="&lt;font style=&quot;font-size: 8px;&quot;&gt;Обработанные данные&lt;/font&gt;" style="text;html=1;align=center;verticalAlign=middle;whiteSpace=wrap;rounded=0;" vertex="1" parent="1">
          <mxGeometry x="580" y="290" width="60" height="10" as="geometry" />
        </mxCell>
        <mxCell id="kqxBuQOH_niwhio6lM97-34" value="" style="endArrow=classic;html=1;rounded=0;" edge="1" parent="1">
          <mxGeometry width="50" height="50" relative="1" as="geometry">
            <mxPoint x="700" y="480" as="sourcePoint" />
            <mxPoint x="699.66" y="420" as="targetPoint" />
          </mxGeometry>
        </mxCell>
        <mxCell id="kqxBuQOH_niwhio6lM97-35" value="Файловая система" style="text;html=1;align=center;verticalAlign=middle;whiteSpace=wrap;rounded=0;" vertex="1" parent="1">
          <mxGeometry x="630" y="440" width="60" height="30" as="geometry" />
        </mxCell>
        <mxCell id="kqxBuQOH_niwhio6lM97-36" value="" style="endArrow=classic;html=1;rounded=0;entryX=0.75;entryY=0;entryDx=0;entryDy=0;" edge="1" parent="1" target="kqxBuQOH_niwhio6lM97-6">
          <mxGeometry width="50" height="50" relative="1" as="geometry">
            <mxPoint x="730" y="50" as="sourcePoint" />
            <mxPoint x="759.31" y="100" as="targetPoint" />
          </mxGeometry>
        </mxCell>
        <mxCell id="kqxBuQOH_niwhio6lM97-37" value="Ведение учета" style="text;html=1;align=center;verticalAlign=middle;whiteSpace=wrap;rounded=0;" vertex="1" parent="1">
          <mxGeometry x="670" y="30" width="60" height="30" as="geometry" />
        </mxCell>
      </root>
    </mxGraphModel>
  </diagram>
</mxfile>
